<mxfile host="app.diagrams.net" modified="2024-01-07T15:55:12.862Z" agent="Mozilla/5.0 (Windows NT 10.0; Win64; x64) AppleWebKit/537.36 (KHTML, like Gecko) Chrome/120.0.0.0 Safari/537.36 Edg/120.0.0.0" etag="gOFYRgDGzzEKr6RN-2dw" version="22.1.17" type="device">
  <diagram name="第 1 页" id="Ob6SMU3s81xqaC-ySsAz">
    <mxGraphModel dx="1016" dy="565" grid="1" gridSize="10" guides="1" tooltips="1" connect="1" arrows="1" fold="1" page="1" pageScale="1" pageWidth="827" pageHeight="1169" math="0" shadow="0">
      <root>
        <mxCell id="0" />
        <mxCell id="1" parent="0" />
        <mxCell id="v7hMWDzQCx73ItwSdqbl-1" value="car owner" style="shape=umlActor;verticalLabelPosition=bottom;verticalAlign=top;html=1;outlineConnect=0;fillColor=#B9E0A5;" parent="1" vertex="1">
          <mxGeometry x="20" y="320" width="40" height="80" as="geometry" />
        </mxCell>
        <mxCell id="v7hMWDzQCx73ItwSdqbl-11" value="&lt;font style=&quot;font-size: 15px;&quot;&gt;Enter the parking lot&lt;/font&gt;" style="ellipse;whiteSpace=wrap;html=1;fillColor=#B9E0A5;" parent="1" vertex="1">
          <mxGeometry x="140" y="220" width="120" height="80" as="geometry" />
        </mxCell>
        <mxCell id="v7hMWDzQCx73ItwSdqbl-12" value="&lt;font style=&quot;font-size: 15px;&quot;&gt;Leave the parking lot&lt;/font&gt;" style="ellipse;whiteSpace=wrap;html=1;fillColor=#B9E0A5;" parent="1" vertex="1">
          <mxGeometry x="140" y="430" width="120" height="80" as="geometry" />
        </mxCell>
        <mxCell id="v7hMWDzQCx73ItwSdqbl-13" value="&lt;font style=&quot;font-size: 15px;&quot;&gt;Add vehicle information&lt;/font&gt;" style="ellipse;whiteSpace=wrap;html=1;fillColor=#B9E0A5;" parent="1" vertex="1">
          <mxGeometry x="340" y="200" width="120" height="80" as="geometry" />
        </mxCell>
        <mxCell id="v7hMWDzQCx73ItwSdqbl-14" value="&lt;font style=&quot;font-size: 15px;&quot;&gt;Pay the fee&lt;/font&gt;" style="ellipse;whiteSpace=wrap;html=1;fillColor=#B9E0A5;" parent="1" vertex="1">
          <mxGeometry x="354" y="540" width="120" height="80" as="geometry" />
        </mxCell>
        <mxCell id="v7hMWDzQCx73ItwSdqbl-15" value="&lt;font style=&quot;font-size: 15px;&quot;&gt;log in system&lt;/font&gt;" style="ellipse;whiteSpace=wrap;html=1;fillColor=#B9E0A5;" parent="1" vertex="1">
          <mxGeometry x="490" y="90" width="120" height="80" as="geometry" />
        </mxCell>
        <mxCell id="v7hMWDzQCx73ItwSdqbl-16" value="&lt;font style=&quot;font-size: 15px;&quot;&gt;Delete vehicle information&lt;/font&gt;" style="ellipse;whiteSpace=wrap;html=1;fillColor=#B9E0A5;" parent="1" vertex="1">
          <mxGeometry x="380" y="370" width="120" height="80" as="geometry" />
        </mxCell>
        <mxCell id="v7hMWDzQCx73ItwSdqbl-18" value="&lt;font style=&quot;font-size: 15px;&quot;&gt;View vehicle information&lt;/font&gt;" style="ellipse;whiteSpace=wrap;html=1;fillColor=#B9E0A5;" parent="1" vertex="1">
          <mxGeometry x="560" y="280" width="120" height="80" as="geometry" />
        </mxCell>
        <mxCell id="MCHKriFhfjXhQ0psfXMy-1" value="&lt;font style=&quot;font-size: 15px;&quot;&gt;Query vehicle information&lt;/font&gt;" style="ellipse;whiteSpace=wrap;html=1;fillColor=#B9E0A5;" parent="1" vertex="1">
          <mxGeometry x="590" y="490" width="120" height="80" as="geometry" />
        </mxCell>
        <mxCell id="MCHKriFhfjXhQ0psfXMy-2" value="administrator" style="shape=umlActor;verticalLabelPosition=bottom;verticalAlign=top;html=1;outlineConnect=0;fillColor=#B9E0A5;" parent="1" vertex="1">
          <mxGeometry x="770" y="280" width="40" height="80" as="geometry" />
        </mxCell>
        <mxCell id="MCHKriFhfjXhQ0psfXMy-3" value="" style="endArrow=none;html=1;rounded=0;entryX=0;entryY=0.5;entryDx=0;entryDy=0;exitX=1;exitY=0.3333333333333333;exitDx=0;exitDy=0;exitPerimeter=0;" parent="1" source="v7hMWDzQCx73ItwSdqbl-1" target="v7hMWDzQCx73ItwSdqbl-11" edge="1">
          <mxGeometry width="50" height="50" relative="1" as="geometry">
            <mxPoint x="500" y="510" as="sourcePoint" />
            <mxPoint x="550" y="460" as="targetPoint" />
          </mxGeometry>
        </mxCell>
        <mxCell id="MCHKriFhfjXhQ0psfXMy-4" value="" style="endArrow=none;html=1;rounded=0;entryX=0;entryY=0.5;entryDx=0;entryDy=0;" parent="1" target="v7hMWDzQCx73ItwSdqbl-12" edge="1">
          <mxGeometry width="50" height="50" relative="1" as="geometry">
            <mxPoint x="60" y="370" as="sourcePoint" />
            <mxPoint x="550" y="460" as="targetPoint" />
          </mxGeometry>
        </mxCell>
        <mxCell id="MCHKriFhfjXhQ0psfXMy-7" value="" style="endArrow=classic;html=1;rounded=0;entryX=0;entryY=0.5;entryDx=0;entryDy=0;exitX=1;exitY=0.5;exitDx=0;exitDy=0;dashed=1;" parent="1" source="v7hMWDzQCx73ItwSdqbl-11" target="v7hMWDzQCx73ItwSdqbl-13" edge="1">
          <mxGeometry relative="1" as="geometry">
            <mxPoint x="470" y="480" as="sourcePoint" />
            <mxPoint x="570" y="480" as="targetPoint" />
          </mxGeometry>
        </mxCell>
        <mxCell id="MCHKriFhfjXhQ0psfXMy-8" value="&amp;lt;&amp;lt;include&amp;gt;&amp;gt;" style="edgeLabel;resizable=0;html=1;align=center;verticalAlign=middle;rotation=0;" parent="MCHKriFhfjXhQ0psfXMy-7" connectable="0" vertex="1">
          <mxGeometry relative="1" as="geometry">
            <mxPoint x="10" y="-20" as="offset" />
          </mxGeometry>
        </mxCell>
        <mxCell id="MCHKriFhfjXhQ0psfXMy-9" value="" style="endArrow=classic;html=1;rounded=0;entryX=0;entryY=0.5;entryDx=0;entryDy=0;exitX=1;exitY=1;exitDx=0;exitDy=0;dashed=1;" parent="1" source="v7hMWDzQCx73ItwSdqbl-12" target="v7hMWDzQCx73ItwSdqbl-14" edge="1">
          <mxGeometry relative="1" as="geometry">
            <mxPoint x="250" y="520" as="sourcePoint" />
            <mxPoint x="350" y="520" as="targetPoint" />
          </mxGeometry>
        </mxCell>
        <mxCell id="MCHKriFhfjXhQ0psfXMy-12" value="&amp;lt;&amp;lt;include&amp;gt;&amp;gt;" style="edgeLabel;resizable=0;html=1;align=center;verticalAlign=middle;rotation=0;" parent="1" connectable="0" vertex="1">
          <mxGeometry x="340.00161786316374" y="550.002095534209" as="geometry" />
        </mxCell>
        <mxCell id="MCHKriFhfjXhQ0psfXMy-13" value="" style="endArrow=classic;html=1;rounded=0;exitX=1;exitY=0.5;exitDx=0;exitDy=0;entryX=0;entryY=0.5;entryDx=0;entryDy=0;dashed=1;strokeWidth=1;" parent="1" source="v7hMWDzQCx73ItwSdqbl-13" target="v7hMWDzQCx73ItwSdqbl-18" edge="1">
          <mxGeometry relative="1" as="geometry">
            <mxPoint x="490" y="370" as="sourcePoint" />
            <mxPoint x="590" y="370" as="targetPoint" />
          </mxGeometry>
        </mxCell>
        <mxCell id="MCHKriFhfjXhQ0psfXMy-14" value="&amp;lt;&amp;lt;extend&amp;gt;&amp;gt;" style="edgeLabel;resizable=0;html=1;align=center;verticalAlign=middle;" parent="MCHKriFhfjXhQ0psfXMy-13" connectable="0" vertex="1">
          <mxGeometry relative="1" as="geometry">
            <mxPoint x="30" y="-10" as="offset" />
          </mxGeometry>
        </mxCell>
        <mxCell id="MCHKriFhfjXhQ0psfXMy-15" value="" style="endArrow=classic;html=1;rounded=0;exitX=1;exitY=0.5;exitDx=0;exitDy=0;entryX=0.056;entryY=0.804;entryDx=0;entryDy=0;entryPerimeter=0;dashed=1;" parent="1" source="v7hMWDzQCx73ItwSdqbl-16" target="v7hMWDzQCx73ItwSdqbl-18" edge="1">
          <mxGeometry relative="1" as="geometry">
            <mxPoint x="490" y="370" as="sourcePoint" />
            <mxPoint x="590" y="370" as="targetPoint" />
          </mxGeometry>
        </mxCell>
        <mxCell id="MCHKriFhfjXhQ0psfXMy-17" value="&amp;lt;&amp;lt;extend&amp;gt;&amp;gt;" style="edgeLabel;resizable=0;html=1;align=center;verticalAlign=middle;" parent="1" connectable="0" vertex="1">
          <mxGeometry x="519.9956038043539" y="430.0004830434831" as="geometry" />
        </mxCell>
        <mxCell id="MCHKriFhfjXhQ0psfXMy-18" value="" style="endArrow=classic;html=1;rounded=0;exitX=0.5;exitY=0;exitDx=0;exitDy=0;entryX=0.5;entryY=1;entryDx=0;entryDy=0;dashed=1;" parent="1" source="MCHKriFhfjXhQ0psfXMy-1" target="v7hMWDzQCx73ItwSdqbl-18" edge="1">
          <mxGeometry relative="1" as="geometry">
            <mxPoint x="500" y="370" as="sourcePoint" />
            <mxPoint x="600" y="370" as="targetPoint" />
          </mxGeometry>
        </mxCell>
        <mxCell id="MCHKriFhfjXhQ0psfXMy-20" value="&amp;lt;&amp;lt;extend&amp;gt;&amp;gt;" style="edgeLabel;resizable=0;html=1;align=center;verticalAlign=middle;" parent="1" connectable="0" vertex="1">
          <mxGeometry x="669.9956038043539" y="440.0004830434831" as="geometry" />
        </mxCell>
        <mxCell id="MCHKriFhfjXhQ0psfXMy-21" value="" style="endArrow=none;html=1;rounded=0;exitX=1;exitY=0.5;exitDx=0;exitDy=0;" parent="1" source="v7hMWDzQCx73ItwSdqbl-15" edge="1">
          <mxGeometry width="50" height="50" relative="1" as="geometry">
            <mxPoint x="680" y="290" as="sourcePoint" />
            <mxPoint x="770" y="300" as="targetPoint" />
          </mxGeometry>
        </mxCell>
        <mxCell id="MCHKriFhfjXhQ0psfXMy-22" value="" style="endArrow=none;html=1;rounded=0;exitX=1;exitY=0.5;exitDx=0;exitDy=0;" parent="1" source="v7hMWDzQCx73ItwSdqbl-18" target="MCHKriFhfjXhQ0psfXMy-2" edge="1">
          <mxGeometry width="50" height="50" relative="1" as="geometry">
            <mxPoint x="680" y="290" as="sourcePoint" />
            <mxPoint x="730" y="240" as="targetPoint" />
          </mxGeometry>
        </mxCell>
      </root>
    </mxGraphModel>
  </diagram>
</mxfile>
